<svg width="96" height="96" viewBox="0 0 96 96" fill="none" xmlns="http://www.w3.org/2000/svg">
  <rect width="96" height="96" rx="28" fill="#1E3A8A"/>
  <circle cx="33" cy="34" r="16" fill="#D4AF37"/>
  <circle cx="63" cy="34" r="16" fill="#D4AF37"/>
  <circle cx="33" cy="34" r="6" fill="#ffffff"/>
  <circle cx="63" cy="34" r="6" fill="#ffffff"/>
  <path d="M34 56H62C60.5 67.5 54.5 74 48 74C41.5 74 35.5 67.5 34 56Z" fill="#F8F4E9"/>
  <path d="M42 54L48 48L54 54" stroke="#1E3A8A" stroke-width="3.5" stroke-linecap="round" stroke-linejoin="round"/>
  <path d="M26 16C28.4 11.5 33.2 8 38.4 8C40.3 8 42.1 8.4 43.7 9.1" stroke="#F8F4E9" stroke-width="4" stroke-linecap="round"/>
  <path d="M70 16C67.6 11.5 62.8 8 57.6 8C55.7 8 53.9 8.4 52.3 9.1" stroke="#F8F4E9" stroke-width="4" stroke-linecap="round"/>
</svg>
